HIERARCHY
ROOT Hips
{
	OFFSET -3.958830 18.904000 13.208200
	CHANNELS 6 Xposition Yposition Zposition Zrotation Yrotation Xrotation 
	JOINT LHipJoint
	{
		OFFSET 0.000000 0.000000 0.000000
		CHANNELS 3 Zrotation Yrotation Xrotation
		JOINT LeftUpLeg
		{
			OFFSET 1.800000 -1.400000 0.085000
			CHANNELS 3 Zrotation Yrotation Xrotation
			JOINT LeftLeg
			{
				OFFSET 2.215000 -6.000000 0.000000
				CHANNELS 3 Zrotation Yrotation Xrotation
				JOINT LeftFoot
				{
					OFFSET 2.500000 -6.900000 0.000000
					CHANNELS 3 Zrotation Yrotation Xrotation
					JOINT LeftToeBase
					{
						OFFSET 0.200000 -0.500000 1.950000
						CHANNELS 3 Zrotation Yrotation Xrotation
						End Site
						{
							OFFSET 0.000000 0.000000 0.000000
						}
					}
				}
			}
		}
	}
	JOINT RHipJoint
	{
		OFFSET 0.000000 0.000000 0.000000
		CHANNELS 3 Zrotation Yrotation Xrotation
		JOINT RightUpLeg
		{
			OFFSET -1.800000 -1.400000 0.085000
			CHANNELS 3 Zrotation Yrotation Xrotation
			JOINT RightLeg
			{
				OFFSET -2.215000 -6.000000 0.000000
				CHANNELS 3 Zrotation Yrotation Xrotation
				JOINT RightFoot
				{
					OFFSET -2.500000 -6.900000 0.000000
					CHANNELS 3 Zrotation Yrotation Xrotation
					JOINT RightToeBase
					{
						OFFSET -0.200000 -0.500000 1.950000
						CHANNELS 3 Zrotation Yrotation Xrotation
						End Site
						{
							OFFSET 0.000000 0.000000 0.000000
						}
					}
				}
			}
		}
	}
	JOINT LowerBack
	{
		OFFSET 0.000000 0.000000 0.000000
		CHANNELS 3 Zrotation Yrotation Xrotation
		JOINT Spine
		{
			OFFSET -0.087000 1.940000 -0.288900
			CHANNELS 3 Zrotation Yrotation Xrotation
			JOINT Spine1
			{
				OFFSET 0.000000 1.950000 0.060000
				CHANNELS 3 Zrotation Yrotation Xrotation
				JOINT Neck
				{
					OFFSET 0.000000 0.000000 0.000000
					CHANNELS 3 Zrotation Yrotation Xrotation
					JOINT Neck1
					{
						OFFSET 0.000000 1.600000 0.340000
						CHANNELS 3 Zrotation Yrotation Xrotation
						JOINT Head
						{
							OFFSET 0.000000 1.667000 -0.240000
							CHANNELS 3 Zrotation Yrotation Xrotation
							End Site
							{
								OFFSET 0.000000 0.000000 0.000000
							}
						}
					}
				}
				JOINT LeftShoulder
				{
					OFFSET 0.000000 0.000000 0.000000
					CHANNELS 3 Zrotation Yrotation Xrotation
					JOINT LeftArm
					{
						OFFSET 2.700000 1.550000 -0.730000
						CHANNELS 3 Zrotation Yrotation Xrotation
						JOINT LeftForeArm
						{
							OFFSET 5.450000 0.000000 0.000000
							CHANNELS 3 Zrotation Yrotation Xrotation
							JOINT LeftHand
							{
								OFFSET 3.450000 0.000000 0.000000
								CHANNELS 3 Zrotation Yrotation Xrotation
								JOINT LeftHandIndex1
								{
									OFFSET 0.750000 0.000000 0.000000
									CHANNELS 3 Zrotation Yrotation Xrotation
									End Site
									{
										OFFSET 0.000000 0.000000 0.000000
									}
								}
							}
						}
					}
				}
				JOINT RightShoulder
				{
					OFFSET 0.000000 0.000000 0.000000
					CHANNELS 3 Zrotation Yrotation Xrotation
					JOINT RightArm
					{
						OFFSET -2.700000 1.550000 -0.730000
						CHANNELS 3 Zrotation Yrotation Xrotation
						JOINT RightForeArm
						{
							OFFSET -5.450000 0.000000 0.000000
							CHANNELS 3 Zrotation Yrotation Xrotation
							JOINT RightHand
							{
								OFFSET -3.450000 0.000000 0.000000
								CHANNELS 3 Zrotation Yrotation Xrotation
								JOINT RightHandIndex1
								{
									OFFSET -0.750000 0.000000 0.000000
									CHANNELS 3 Zrotation Yrotation Xrotation
									End Site
									{
										OFFSET 0.000000 0.000000 0.000000
									}
								}
							}
						}
					}
				}
			}
		}
	}
}
MOTION
Frames: 5
Frame Time: 0.016667
2.661110 16.331480 -8.384680 163.799496 -32.241394 173.093473 -15.624163 15.031557 3.689073 10.370411 -2.179331 -5.471207 -15.581774 11.042029 21.653635 0.471555 5.995476 2.274179 0.044260 0.105190 0.147380 17.548069 -9.677030 3.292591 8.409699 3.160741 -19.608339 -2.050709 -3.999872 27.867954 -0.407180 -2.804217 3.425526 -0.268360 -0.313360 -0.253990 -2.607587 -6.343030 -8.620551 7.367708 -9.260090 16.514369 -6.460239 -6.580197 -19.071350 10.582173 -2.498459 -19.646937 -24.172563 24.609496 66.755554 -0.718590 19.191810 1.335120 -20.978350 -5.382204 7.288442 -36.041895 17.299460 -5.775067 19.281206 -12.225779 -1.099680 -3.211383 2.622563 0.746340 -0.404710 0.372320 -0.100250 4.903358 7.354128 11.679718 49.175902 -24.752331 -13.809293 -6.346145 13.789964 -0.023225 2.747858 -0.598049 -0.086260 0.106060 -0.017470 -0.170360 
2.339360 16.220960 -8.455100 166.454334 -26.057085 170.106367 -15.494344 15.011631 3.385786 14.174909 -1.319486 -10.060770 -11.786002 9.150956 18.602959 0.129107 5.243198 2.523751 -0.009690 -0.010350 0.129740 17.753102 -9.524140 3.274332 10.336599 2.879057 -14.990343 -2.675823 -4.089278 28.542805 -0.460466 -3.224148 3.279830 -0.279300 -0.233920 -0.251900 -2.895227 -6.428450 -8.352707 14.252514 -8.725871 17.863950 -10.428213 -4.754464 -12.405533 10.634310 -3.571831 -19.984020 -26.537265 24.730970 61.191388 -3.136560 19.271880 1.157440 -24.292620 -9.870464 7.713097 -39.676128 10.858854 -4.490660 18.025308 -7.504466 -0.876188 -3.288001 2.627139 0.741640 -0.354200 0.288340 -0.120080 6.747074 13.010513 11.831405 56.233230 -17.195547 -14.331394 -8.960279 12.770663 -0.512767 2.713123 -0.707729 -0.159580 0.147510 0.050700 -0.196780 
2.077700 16.137620 -8.510330 167.899829 -19.895751 167.028416 -15.351650 14.673934 3.274985 19.362517 -0.364023 -13.771402 -8.255907 7.604834 15.247093 -0.058816 4.600673 2.645740 0.174000 0.196530 0.263010 17.967827 -9.535468 3.267251 12.006253 2.428637 -10.754585 -4.806801 -3.633161 29.756968 -0.633824 -3.698560 3.063189 -0.155150 -0.356430 -0.203060 -3.244499 -5.729808 -8.265835 18.190175 -8.636081 19.980957 -12.519202 -3.168297 -4.435351 9.988168 -3.771092 -21.465516 -27.328196 24.478668 60.380952 -5.940260 19.222320 -2.594110 -29.796311 -17.683721 9.351888 -38.300538 5.502947 -2.737873 11.699816 -5.962296 -0.504885 -3.143945 2.793985 0.726520 -0.390720 0.352280 -0.093820 12.008788 21.267831 12.781859 55.940994 -10.051455 -12.638310 -11.298848 13.800095 -1.280521 2.649585 -0.960004 -0.080950 0.063890 -0.060500 -0.205920 
1.842750 16.064030 -8.580080 168.842372 -9.572985 166.157153 -15.075321 13.989659 3.005519 24.887734 1.100579 -16.439007 -2.140041 6.432111 14.415302 -0.214617 4.337843 2.667802 0.271220 0.295490 0.352810 18.374663 -9.748217 3.351709 13.881185 2.973931 -8.626842 -7.871238 -2.476155 31.094515 -0.751489 -4.110653 2.879117 -0.056190 -0.384160 -0.162020 -4.001195 -3.991814 -8.072022 23.992419 -8.374127 20.049596 -16.810146 -1.144586 3.757454 9.652188 -4.845797 -22.121269 -27.794134 24.808275 56.235770 -9.418150 20.004000 -7.691520 -32.059732 -23.708933 10.985800 -36.662205 1.907304 -3.622427 6.561460 -12.429177 -1.109896 -3.022291 2.929209 0.706230 -0.368790 0.354020 -0.096820 13.547302 28.346950 12.671658 54.871178 0.961867 -10.723257 -13.154828 16.316095 -2.540703 2.526958 -1.114744 -0.071910 0.058450 -0.084820 -0.232360 
1.686060 16.057280 -8.642020 166.588435 -5.784948 164.203428 -15.046910 14.076118 3.206781 26.352914 1.855182 -17.006647 4.175173 4.699600 9.201713 -0.328196 3.816392 2.830686 0.410720 0.432560 0.567130 18.322747 -10.006768 3.196171 11.181526 2.664214 -6.536206 -9.177462 -2.191776 32.902303 -0.897641 -4.402390 2.737335 0.039260 -0.553660 -0.150490 -3.921000 -3.732577 -8.293260 18.913938 -7.463408 23.237060 -15.829151 0.124500 10.235939 9.342293 -3.177551 -25.118725 -24.331619 23.358554 61.673345 -15.721830 20.322660 -16.025030 -35.025007 -30.640835 13.156574 -31.179711 -4.015608 -5.182695 2.645771 -17.262037 -1.229948 -2.790669 2.958540 0.811700 -0.438390 0.484190 -0.130190 16.606385 35.797657 13.661721 49.646432 7.165191 -11.923932 -15.442128 24.469707 -4.943888 2.330027 -1.119535 -0.068220 0.080300 -0.160440 -0.318980 
